<svg width="20" height="20" viewBox="0 0 20 20" fill="none" xmlns="http://www.w3.org/2000/svg">
<path d="M16.6504 2.49192C16.6193 2.49291 16.5884 2.49562 16.5576 2.50006H12.5C12.3896 2.4985 12.2799 2.5189 12.1775 2.56008C12.075 2.60126 11.9817 2.66239 11.9031 2.73993C11.8244 2.81747 11.762 2.90986 11.7194 3.01174C11.6767 3.11362 11.6548 3.22296 11.6548 3.3334C11.6548 3.44383 11.6767 3.55317 11.7194 3.65505C11.762 3.75693 11.8244 3.84933 11.9031 3.92686C11.9817 4.0044 12.075 4.06553 12.1775 4.10671C12.2799 4.14789 12.3896 4.16829 12.5 4.16673H14.6549L6.91081 11.9109C6.83083 11.9877 6.76698 12.0796 6.72299 12.1814C6.679 12.2832 6.65576 12.3927 6.65464 12.5036C6.65351 12.6144 6.67451 12.7244 6.71642 12.8271C6.75833 12.9297 6.8203 13.023 6.89869 13.1014C6.97709 13.1798 7.07035 13.2417 7.173 13.2836C7.27564 13.3256 7.38562 13.3466 7.49649 13.3454C7.60736 13.3443 7.71688 13.3211 7.81866 13.2771C7.92043 13.2331 8.01241 13.1692 8.08919 13.0893L15.8333 5.34511V7.50006C15.8318 7.61049 15.8522 7.72013 15.8934 7.8226C15.9345 7.92507 15.9957 8.01834 16.0732 8.09698C16.1507 8.17562 16.2431 8.23807 16.345 8.28069C16.4469 8.32332 16.5562 8.34526 16.6667 8.34526C16.7771 8.34526 16.8864 8.32332 16.9883 8.28069C17.0902 8.23807 17.1826 8.17562 17.2601 8.09698C17.3377 8.01834 17.3988 7.92507 17.44 7.8226C17.4812 7.72013 17.5016 7.61049 17.5 7.50006V3.43919C17.5166 3.31921 17.5068 3.19706 17.4714 3.08123C17.436 2.96541 17.3757 2.8587 17.2949 2.76853C17.214 2.67836 17.1144 2.6069 17.0031 2.55913C16.8918 2.51136 16.7715 2.48843 16.6504 2.49192ZM4.16667 2.50006C3.25578 2.50006 2.5 3.25584 2.5 4.16673V15.8334C2.5 16.7443 3.25578 17.5001 4.16667 17.5001H15.8333C16.7442 17.5001 17.5 16.7443 17.5 15.8334V10.8334C17.5016 10.723 17.4812 10.6133 17.44 10.5109C17.3988 10.4084 17.3377 10.3151 17.2601 10.2365C17.1826 10.1578 17.0902 10.0954 16.9883 10.0528C16.8864 10.0101 16.7771 9.98819 16.6667 9.98819C16.5562 9.98819 16.4469 10.0101 16.345 10.0528C16.2431 10.0954 16.1507 10.1578 16.0732 10.2365C15.9957 10.3151 15.9345 10.4084 15.8934 10.5109C15.8522 10.6133 15.8318 10.723 15.8333 10.8334V15.8334H4.16667V4.16673H9.16667C9.27709 4.16829 9.38673 4.14789 9.4892 4.10671C9.59168 4.06553 9.68494 4.0044 9.76359 3.92686C9.84223 3.84933 9.90467 3.75693 9.9473 3.65505C9.98992 3.55317 10.0119 3.44383 10.0119 3.3334C10.0119 3.22296 9.98992 3.11362 9.9473 3.01174C9.90467 2.90986 9.84223 2.81747 9.76359 2.73993C9.68494 2.66239 9.59168 2.60126 9.4892 2.56008C9.38673 2.5189 9.27709 2.4985 9.16667 2.50006H4.16667Z" fill="#D1F5F3"/>
</svg>
