<svg width="20" height="20" viewBox="0 0 20 20" fill="none" xmlns="http://www.w3.org/2000/svg">
<path d="M18.6586 5.07178C17.7643 3.51153 16.5514 2.27628 15.0194 1.36575C13.4871 0.455173 11.8144 0 9.99991 0C8.18569 0 6.51238 0.455312 4.98046 1.36575C3.4483 2.27624 2.23539 3.51153 1.34116 5.07178C0.447068 6.63198 0 8.33574 0 10.183C0 12.402 0.635737 14.3973 1.90753 16.1696C3.17919 17.942 4.82198 19.1684 6.83577 19.849C7.07018 19.8933 7.24371 19.8621 7.35654 19.7563C7.46941 19.6503 7.52578 19.5176 7.52578 19.3587C7.52578 19.3322 7.52354 19.0936 7.51921 18.6427C7.51474 18.1918 7.51264 17.7984 7.51264 17.4628L7.21315 17.5156C7.0222 17.5512 6.78132 17.5663 6.49049 17.562C6.19981 17.5579 5.89804 17.5268 5.58559 17.4692C5.27302 17.412 4.98228 17.2794 4.71317 17.0717C4.44419 16.8639 4.25324 16.592 4.14036 16.2563L4.01016 15.9512C3.92337 15.7481 3.78674 15.5224 3.60008 15.2751C3.41342 15.0275 3.22466 14.8597 3.03371 14.7713L2.94254 14.7048C2.8818 14.6607 2.82543 14.6074 2.7733 14.5456C2.72122 14.4838 2.68223 14.4219 2.65619 14.3599C2.6301 14.2979 2.65172 14.2471 2.72127 14.2072C2.79081 14.1673 2.9165 14.1479 3.09888 14.1479L3.35919 14.1876C3.53281 14.223 3.74757 14.3288 4.00373 14.5057C4.25976 14.6825 4.47023 14.9123 4.63518 15.195C4.83493 15.5575 5.07559 15.8338 5.35784 16.0238C5.63986 16.2139 5.92421 16.3088 6.21061 16.3088C6.49702 16.3088 6.74438 16.2867 6.95279 16.2427C7.16098 16.1985 7.35631 16.1321 7.53868 16.0437C7.61681 15.4512 7.82951 14.9961 8.17661 14.6779C7.68189 14.6249 7.2371 14.5452 6.84202 14.4392C6.44717 14.333 6.03914 14.1607 5.6182 13.9218C5.19704 13.6832 4.84766 13.387 4.56997 13.0336C4.29223 12.68 4.06429 12.2157 3.88648 11.6413C3.70857 11.0666 3.6196 10.4037 3.6196 9.6524C3.6196 8.58262 3.96255 7.67227 4.64832 6.92085C4.32707 6.11658 4.3574 5.21496 4.73939 4.2161C4.99113 4.13645 5.36445 4.19622 5.85918 4.39504C6.354 4.59395 6.71628 4.76434 6.94641 4.90562C7.17653 5.04684 7.36092 5.16652 7.49983 5.26359C8.30727 5.03384 9.14052 4.91894 9.99982 4.91894C10.8591 4.91894 11.6925 5.03384 12.5 5.26359L12.9948 4.94551C13.3332 4.73327 13.7327 4.53877 14.1925 4.36197C14.6526 4.18526 15.0044 4.13659 15.2475 4.21624C15.638 5.21515 15.6728 6.11672 15.3515 6.92099C16.0372 7.67241 16.3803 8.58299 16.3803 9.65254C16.3803 10.4039 16.291 11.0689 16.1133 11.6479C15.9355 12.2271 15.7056 12.6909 15.4236 13.0402C15.1412 13.3895 14.7896 13.6834 14.3687 13.922C13.9476 14.1607 13.5395 14.333 13.1446 14.4391C12.7496 14.5453 12.3048 14.6251 11.8101 14.6781C12.2613 15.0757 12.4869 15.7034 12.4869 16.5608V19.3583C12.4869 19.5172 12.5412 19.6499 12.6498 19.7559C12.7583 19.8618 12.9297 19.8929 13.1641 19.8486C15.1782 19.1681 16.8209 17.9416 18.0926 16.1692C19.364 14.397 20 12.4016 20 10.1826C19.9995 8.3356 19.5522 6.63198 18.6586 5.07178Z" fill="#D1F5F3"/>
</svg>
